<svg xmlns="http://www.w3.org/2000/svg" width="1024" height="1024" viewBox="0 0 1024 1024" version="1.1"><path d="M 685.888 439.500 C 684.357 443.158, 679.808 460.141, 680.243 460.576 C 680.478 460.811, 682.035 456.166, 683.703 450.252 L 686.734 439.500 701.790 439.224 L 716.845 438.949 718.148 444.724 C 718.865 447.901, 719.583 449.825, 719.743 449 C 719.903 448.175, 719.445 445.475, 718.726 443 L 717.417 438.500 702.071 438 C 687.425 437.523, 686.687 437.591, 685.888 439.500 M 106.654 438.750 C 106.399 439.163, 129.435 439.500, 157.845 439.500 L 209.500 439.500 209.784 450.250 L 210.068 461 201.284 461.136 L 192.500 461.272 199.227 462.250 C 202.927 462.788, 207.090 462.943, 208.477 462.595 C 210.999 461.962, 211 461.955, 211 449.981 L 211 438 159.059 438 C 130.491 438, 106.909 438.337, 106.654 438.750 M 251.140 447.065 C 249.326 452.076, 248.038 456.371, 248.277 456.610 C 248.515 456.849, 250.163 452.984, 251.938 448.022 L 255.165 439 271.333 439.012 L 287.500 439.024 294.332 457.762 C 307.559 494.041, 314.339 511.994, 314.681 511.652 C 315.007 511.326, 307.661 490.853, 294.175 454.500 L 288.240 438.500 271.338 438.227 L 254.437 437.955 251.140 447.065 M 354 504 L 354 570 368.469 570 L 382.938 570 383.219 542.499 C 383.374 527.374, 383.163 514.999, 382.750 514.999 C 382.337 515, 382 527.150, 382 542 L 382 569 368.500 569 L 355 569 355 504 L 355 439 368.500 439 L 382 439 382 465 L 382 491 409 491 L 436 491 436 465 L 436 439 449.500 439 L 463 439 463 504 L 463 569 449.516 569 L 436.032 569 435.749 541.750 L 435.466 514.500 435.233 542.250 L 435 570 449.500 570 L 464 570 464 504 L 464 438 449.500 438 L 435 438 435 464 L 435 490 409 490 L 383 490 383 464 L 383 438 368.500 438 L 354 438 354 504 M 528.479 439.250 C 520.554 460.870, 512.025 485.358, 512.317 485.650 C 512.528 485.861, 516.481 475.454, 521.101 462.523 L 529.500 439.012 545.614 439.006 L 561.728 439 567.981 456.250 C 571.420 465.738, 574.657 474.175, 575.175 475 C 576.554 477.198, 576.135 475.914, 569 456.084 L 562.500 438.019 545.719 438.009 C 533.197 438.002, 528.821 438.317, 528.479 439.250 M 606.400 439.600 C 606.738 440.480, 608.879 448.137, 611.158 456.616 C 613.437 465.094, 615.497 471.837, 615.735 471.599 C 615.973 471.361, 614.330 464.426, 612.084 456.188 C 609.838 447.950, 608 440.700, 608 440.077 C 608 439.274, 612.139 439.026, 622.228 439.223 L 636.456 439.500 637.572 444.532 C 638.186 447.300, 638.978 450.225, 639.332 451.032 C 640.119 452.826, 639.190 446.891, 637.879 441.750 L 636.923 438 621.354 438 C 607.495 438, 605.853 438.176, 606.400 439.600 M 762.547 449.573 C 761.043 455.938, 759.990 461.324, 760.208 461.541 C 760.425 461.759, 761.862 456.776, 763.400 450.468 L 766.198 439 780.099 439 C 787.744 439, 794 439.220, 794 439.489 C 794 439.758, 793.062 443.395, 791.917 447.572 C 790.771 451.749, 790.026 455.359, 790.262 455.595 C 790.658 455.991, 795.044 440.441, 795.014 438.750 C 795.006 438.337, 788.313 438, 780.141 438 L 765.281 438 762.547 449.573 M 805 439.300 C 805 440.015, 805.386 441.028, 805.858 441.550 C 806.330 442.072, 808.523 445.875, 810.732 450 C 815.248 458.433, 822.488 471.373, 838.829 500.219 L 850 519.939 850 544.969 L 850 570 864 570 L 878 570 878.018 544.750 L 878.036 519.500 880.834 514.500 C 901.397 477.746, 923 438.775, 923 438.433 C 923 438.195, 915.913 438.014, 907.250 438.031 L 891.500 438.061 882.756 454.281 C 869.951 478.034, 864.579 487.754, 863.863 488.471 C 863.513 488.821, 858.806 480.645, 853.403 470.303 C 848 459.962, 841.987 448.466, 840.040 444.758 L 836.500 438.015 820.750 438.008 C 808.490 438.002, 805 438.288, 805 439.300 M 808.124 443.250 C 809.314 445.587, 816.127 457.850, 823.264 470.500 C 830.402 483.150, 839.562 499.420, 843.620 506.656 L 851 519.813 851 544.406 L 851 569 864 569 L 877 569 877 544.293 L 877 519.586 893.728 489.543 C 920.265 441.882, 921 440.540, 921 439.750 C 921 439.338, 914.523 439, 906.607 439 L 892.215 439 880.450 460.750 C 863.087 492.850, 863.979 491.428, 862.545 489.297 C 861.880 488.309, 858.506 482.100, 855.049 475.500 C 851.591 468.900, 845.819 457.988, 842.223 451.250 L 835.684 439 820.822 439 L 805.959 439 808.124 443.250 M 640.092 454 C 639.953 456.210, 644.288 473.635, 644.683 472.452 C 644.867 471.898, 643.931 467.182, 642.602 461.972 C 641.273 456.762, 640.143 453.175, 640.092 454 M 721 455.583 C 720.999 456.087, 722.544 462.125, 724.433 469 C 726.321 475.875, 730.667 491.967, 734.089 504.761 C 737.511 517.555, 740.489 527.844, 740.706 527.628 C 741.238 527.096, 722.331 456.130, 721.379 455.083 C 721.171 454.854, 721 455.079, 721 455.583 M 788.248 460.714 C 781.313 486.618, 779.917 492.250, 780.328 492.662 C 780.593 492.926, 781.133 491.648, 781.529 489.822 C 781.925 487.995, 784.017 480.036, 786.177 472.136 C 788.338 464.236, 789.915 457.582, 789.683 457.350 C 789.451 457.118, 788.805 458.632, 788.248 460.714 M 246.226 460.699 C 245.674 462.240, 242.221 471.761, 238.553 481.858 C 234.885 491.956, 232.045 500.379, 232.243 500.576 C 232.441 500.774, 236.071 491.429, 240.310 479.810 C 244.550 468.191, 247.841 458.508, 247.625 458.291 C 247.408 458.075, 246.779 459.158, 246.226 460.699 M 107 461.865 C 107 462.391, 114.797 462.621, 125.500 462.411 L 144 462.047 144 516.023 L 144 570 158.250 569.781 L 172.500 569.561 158.759 569.252 L 145.017 568.944 144.759 515.222 L 144.500 461.500 125.750 461.228 C 114.964 461.071, 107 461.342, 107 461.865 M 171.667 461.667 C 170.728 462.605, 170.830 568, 171.770 568 C 172.193 568, 172.531 544.263, 172.520 515.250 L 172.500 462.500 182.500 461.944 L 192.500 461.387 182.417 461.194 C 176.871 461.087, 172.033 461.300, 171.667 461.667 M 676.577 472.077 C 675.082 477.640, 674.049 482.382, 674.282 482.615 C 674.514 482.848, 675.928 478.486, 677.423 472.923 C 678.918 467.360, 679.951 462.618, 679.718 462.385 C 679.486 462.152, 678.072 466.514, 676.577 472.077 M 757.677 469.236 C 756.755 472.907, 756.041 476.494, 756.090 477.206 C 756.140 477.917, 757.029 475.350, 758.066 471.500 C 759.103 467.650, 759.817 464.064, 759.653 463.530 C 759.488 462.997, 758.599 465.564, 757.677 469.236 M 270 468.918 C 270 469.973, 269.864 471.436, 269.697 472.168 C 269.531 472.901, 269.835 472.509, 270.374 471.298 C 271.393 469.004, 270.899 467.751, 284.183 506.308 C 285.852 511.152, 287.411 514.923, 287.647 514.686 C 287.883 514.450, 285.084 505.762, 281.427 495.379 C 277.770 484.995, 274.135 474.363, 273.350 471.750 C 271.914 466.970, 270 465.353, 270 468.918 M 546.983 472.583 C 546.955 474.061, 562.414 517.920, 562.820 517.514 C 563.180 517.154, 548.148 472.910, 547.385 472.083 C 547.173 471.854, 546.992 472.079, 546.983 472.583 M 616 473.590 C 616 474.973, 626.020 511.353, 626.546 511.879 C 627.374 512.707, 627.038 511.294, 621.906 492.326 C 617.209 474.971, 616 471.133, 616 473.590 M 645.166 475.500 C 645.153 477.629, 647.731 486.192, 647.876 484.500 C 647.923 483.950, 647.335 481.250, 646.570 478.500 C 645.805 475.750, 645.173 474.400, 645.166 475.500 M 576 477.562 C 576 479.074, 581.192 492.141, 581.622 491.711 C 581.844 491.489, 580.857 488.201, 579.428 484.404 C 576.845 477.538, 576 475.852, 576 477.562 M 700.720 479.962 C 700.427 481.084, 700.541 481.784, 700.974 481.516 C 701.407 481.248, 702.462 483.835, 703.319 487.265 C 704.176 490.694, 709.742 510.703, 715.689 531.729 L 726.500 569.959 743.500 569.755 L 760.500 569.552 743.961 569.253 L 727.421 568.954 720.058 543.227 C 716.008 529.077, 710.282 508.757, 707.335 498.071 C 704.387 487.385, 701.813 478.480, 701.615 478.281 C 701.416 478.083, 701.014 478.839, 700.720 479.962 M 262.750 492.212 C 257.338 508.170, 256.577 510.662, 257.323 509.969 C 258.169 509.184, 268.065 479.732, 267.629 479.296 C 267.425 479.091, 265.229 484.903, 262.750 492.212 M 670.202 495.382 C 668.441 501.800, 667.037 507.602, 667.081 508.276 C 667.126 508.949, 668.695 504.100, 670.569 497.500 C 672.442 490.900, 673.847 485.098, 673.690 484.607 C 673.533 484.115, 671.963 488.964, 670.202 495.382 M 536.603 493.690 C 535.171 497.989, 534.034 501.955, 534.075 502.503 C 534.117 503.052, 535.462 499.708, 537.066 495.074 C 538.669 490.439, 539.807 486.473, 539.594 486.260 C 539.381 486.047, 538.035 489.391, 536.603 493.690 M 648.118 487 C 648.083 487.825, 649.801 495.250, 651.936 503.500 C 654.071 511.750, 655.847 517.825, 655.882 517 C 655.917 516.175, 654.199 508.750, 652.064 500.500 C 649.929 492.250, 648.153 486.175, 648.118 487 M 697.194 492.564 C 696.502 495.152, 696.146 497.479, 696.402 497.735 C 697.015 498.348, 699.215 490.146, 698.785 488.855 C 698.602 488.307, 697.886 489.976, 697.194 492.564 M 582.354 494.500 C 582.610 495.600, 586.720 507.075, 591.490 520 C 596.259 532.925, 601.745 548, 603.681 553.500 C 605.617 559, 607.859 564.625, 608.664 566 C 610.361 568.900, 610.534 569.436, 603.508 550 C 587.334 505.261, 580.988 488.610, 582.354 494.500 M 750.077 501.077 C 749.462 503.945, 749.149 506.482, 749.382 506.715 C 749.614 506.948, 750.308 504.791, 750.923 501.923 C 751.538 499.055, 751.851 496.518, 751.618 496.285 C 751.386 496.052, 750.692 498.209, 750.077 501.077 M 504.242 506.197 C 500.614 516.287, 499.575 519.664, 500.306 518.987 C 501.144 518.211, 508.010 498.676, 507.591 498.258 C 507.391 498.058, 505.884 501.630, 504.242 506.197 M 775.045 509.545 C 773.800 514.259, 772.969 518.302, 773.197 518.530 C 773.426 518.759, 774.626 515.084, 775.864 510.364 C 777.102 505.643, 777.933 501.600, 777.712 501.379 C 777.490 501.157, 776.291 504.832, 775.045 509.545 M 225.605 517.605 C 222.487 526.221, 220.104 533.438, 220.309 533.643 C 220.514 533.847, 223.242 526.976, 226.372 518.372 C 229.502 509.768, 231.885 502.551, 231.668 502.334 C 231.450 502.117, 228.722 508.989, 225.605 517.605 M 254.673 515.446 L 253.121 520 271.061 520 L 289 520 288.884 517.750 C 288.797 516.057, 288.655 515.933, 288.311 517.250 C 287.899 518.827, 286.230 519, 271.427 519 C 261.905 519, 255 518.607, 255 518.065 C 255 517.551, 255.463 515.913, 256.028 514.426 C 256.593 512.939, 256.869 511.536, 256.640 511.307 C 256.412 511.079, 255.527 512.941, 254.673 515.446 M 315.030 513.011 C 315.014 513.293, 317.519 520.493, 320.597 529.011 C 323.675 537.530, 328.150 550.013, 330.541 556.750 L 334.889 569 321.022 569 L 307.155 569 305.978 565.433 C 304.430 560.742, 303.733 561.519, 305.200 566.301 L 306.336 570 321.235 570 L 336.135 570 335.450 567.750 C 335.074 566.513, 330.712 554.250, 325.758 540.500 C 317.611 517.886, 315.120 511.504, 315.030 513.011 M 627 513.800 C 627 514.846, 629.087 522.577, 638.393 556 C 640.307 562.875, 641.902 567.888, 641.937 567.140 C 642.005 565.666, 628.044 513.769, 627.395 513.083 C 627.178 512.854, 627 513.177, 627 513.800 M 528.607 516.582 C 528.273 517.452, 528 518.577, 528 519.082 C 528 519.611, 534.887 519.906, 544.250 519.777 L 560.500 519.555 544.691 519.252 C 529.472 518.960, 528.905 518.875, 529.508 516.974 C 530.252 514.632, 529.483 514.298, 528.607 516.582 M 656.166 520.500 C 656.153 522.629, 658.731 531.192, 658.876 529.500 C 658.923 528.950, 658.335 526.250, 657.570 523.500 C 656.805 520.750, 656.173 519.400, 656.166 520.500 M 497.538 524.538 C 496.576 527.059, 496.010 529.344, 496.282 529.615 C 496.553 529.886, 497.499 527.983, 498.385 525.385 C 500.475 519.249, 499.812 518.585, 497.538 524.538 M 772 520.464 C 772 520.903, 769.285 531.397, 765.968 543.784 C 762.650 556.171, 760.066 566.699, 760.227 567.180 C 760.387 567.660, 763.350 557.415, 766.812 544.413 C 770.274 531.411, 772.857 520.524, 772.553 520.220 C 772.249 519.916, 772 520.026, 772 520.464 M 686.563 530.063 C 685.619 533.427, 685.032 536.365, 685.259 536.592 C 685.485 536.819, 686.438 534.246, 687.375 530.875 C 688.312 527.504, 688.899 524.566, 688.679 524.346 C 688.459 524.126, 687.506 526.698, 686.563 530.063 M 493.118 537.118 C 491.961 540.544, 491.186 543.519, 491.396 543.730 C 491.607 543.940, 492.725 541.309, 493.882 537.882 C 495.039 534.456, 495.814 531.481, 495.604 531.270 C 495.393 531.060, 494.275 533.691, 493.118 537.118 M 213.981 549.717 C 207.787 567.037, 207.435 568.144, 208.812 566 C 210.205 563.831, 220.120 535.787, 219.657 535.324 C 219.443 535.110, 216.889 541.587, 213.981 549.717 M 679.923 553.431 L 675.606 568.954 658.553 569.252 L 641.500 569.550 659 569.767 L 676.500 569.984 680.759 554.334 C 683.102 545.727, 684.843 538.510, 684.629 538.296 C 684.416 538.082, 682.298 544.893, 679.923 553.431 M 242.038 552.541 C 240.229 557.789, 238.989 562.323, 239.283 562.616 C 239.577 562.910, 240.129 562.104, 240.511 560.825 C 240.892 559.546, 242.339 555.245, 243.726 551.266 L 246.248 544.033 272.374 543.749 L 298.500 543.465 271.913 543.233 L 245.326 543 242.038 552.541 M 516.110 554.548 C 513.849 560.918, 512.024 566.663, 512.053 567.315 C 512.082 567.967, 514.028 563.100, 516.379 556.500 L 520.653 544.500 546.183 544.233 L 571.714 543.967 576.175 556.733 L 580.637 569.500 595.069 569.540 L 609.500 569.580 595.462 569.265 L 581.424 568.949 576.962 556.224 L 572.500 543.500 546.360 543.234 L 520.220 542.967 516.110 554.548 M 298.052 545.500 C 297.963 546.943, 303.212 561.121, 303.667 560.666 C 303.878 560.456, 302.714 556.732, 301.082 552.392 C 299.450 548.051, 298.086 544.950, 298.052 545.500 M 486.143 556.825 C 483.864 563.355, 482 568.991, 482 569.349 C 482 569.707, 488.863 569.900, 497.250 569.779 L 512.500 569.558 497.653 569.252 C 484.082 568.972, 482.864 568.798, 483.472 567.223 C 486.182 560.203, 490.966 545.633, 490.661 545.328 C 490.454 545.121, 488.421 550.295, 486.143 556.825 M 237.428 566.431 L 236.759 569.098 221.878 568.799 C 213.693 568.634, 206.998 568.837, 206.999 569.250 C 206.999 569.663, 213.923 570, 222.383 570 L 237.767 570 238.295 567.250 C 238.987 563.648, 238.291 562.991, 237.428 566.431" stroke="none" fill="#b5b1e4" fill-rule="evenodd"/><path d="M 107.422 449.741 L 107.500 460.500 126 461 L 144.500 461.500 144.759 515.250 L 145.017 569 158.259 569 L 171.500 569 171.500 515.250 L 171.500 461.500 182 461.420 L 192.500 461.340 183.500 461.981 C 174.713 462.607, 174.807 462.623, 187.500 462.669 C 195.647 462.699, 199.007 462.449, 196.500 462 C 193.360 461.438, 194.389 461.253, 201.284 461.142 L 210.068 461 209.784 450.250 L 209.500 439.500 158.422 439.241 L 107.345 438.982 107.422 449.741 M 254.212 441.750 C 253.671 443.262, 248.709 456.875, 243.186 472 C 237.662 487.125, 228.368 512.775, 222.532 529 C 213.346 554.540, 210.992 560.940, 208.283 567.750 C 207.899 568.715, 211.070 569, 222.198 569 L 236.609 569 240.924 556 L 245.238 543 271.678 543 C 287.404 543, 297.889 543.371, 297.553 543.915 C 297.242 544.418, 297.359 544.980, 297.813 545.165 C 298.268 545.349, 300.570 550.788, 302.929 557.250 L 307.218 569 321.053 569 L 334.889 569 330.541 556.750 C 328.150 550.013, 323.690 537.571, 320.629 529.102 C 317.569 520.633, 315.278 513.359, 315.539 512.937 C 315.799 512.516, 315.595 512.020, 315.086 511.835 C 314.192 511.512, 308.756 497.352, 294.329 457.762 L 287.500 439.024 271.348 439.012 L 255.196 439 254.212 441.750 M 355 504 L 355 569 368.500 569 L 382 569 382 542.250 L 382 515.500 409 515.500 L 436 515.500 436 542.250 L 436 569 449.500 569 L 463 569 463 504 L 463 439 449.500 439 L 436 439 436 465 L 436 491 409 491 L 382 491 382 465 L 382 439 368.500 439 L 355 439 355 504 M 523.500 455.905 C 520.200 465.201, 517.093 472.555, 516.595 472.249 C 516.098 471.942, 515.977 472.154, 516.327 472.720 C 517.227 474.176, 513.631 484.281, 512.561 483.304 C 512.076 482.862, 511.970 483.009, 512.325 483.631 C 513.072 484.939, 501.297 518.332, 499.912 518.835 C 499.403 519.020, 499.207 519.526, 499.476 519.961 C 500.191 521.118, 496.980 530, 495.847 530 C 495.316 530, 495.130 530.401, 495.433 530.891 C 495.736 531.382, 493.065 540.044, 489.498 550.141 C 485.930 560.239, 483.009 568.612, 483.006 568.750 C 483.003 568.888, 489.413 568.998, 497.250 568.995 L 511.500 568.990 513.888 561.021 C 515.290 556.340, 516.695 553.311, 517.292 553.681 C 517.851 554.026, 518.023 553.846, 517.673 553.279 C 517.323 552.713, 517.748 550.161, 518.618 547.608 L 520.199 542.967 546.350 543.234 L 572.500 543.500 576.971 556.250 L 581.442 569 595.746 569 L 610.051 569 608.623 566.237 C 607.837 564.718, 605.609 558.981, 603.673 553.487 C 599.995 543.058, 586.545 506.222, 582.318 495 C 578.934 486.018, 574.247 473.298, 567.489 454.750 L 561.749 439 545.625 439.002 L 529.500 439.005 523.500 455.905 M 608 440.066 C 608 440.683, 612.278 456.934, 617.506 476.179 C 622.735 495.424, 626.758 511.582, 626.447 512.085 C 626.136 512.588, 626.304 513, 626.819 513 C 628.053 513, 631.249 525.789, 630.370 527.210 C 629.997 527.814, 630.115 528.047, 630.634 527.726 C 631.469 527.210, 642.110 564.580, 642.031 567.750 C 642.007 568.702, 646.007 569, 658.782 569 L 675.565 569 681.026 549.591 C 684.029 538.916, 686.896 530.436, 687.398 530.746 C 687.899 531.056, 687.995 530.800, 687.610 530.178 C 686.828 528.912, 694.918 499.690, 696.197 499.165 C 696.645 498.980, 696.778 498.450, 696.491 497.986 C 695.768 496.816, 698.219 488, 699.266 488 C 699.735 488, 699.828 487.530, 699.473 486.956 C 699.118 486.382, 699.332 485.304, 699.949 484.561 C 700.566 483.818, 701.001 482.826, 700.917 482.355 C 700.832 481.885, 700.830 480.600, 700.912 479.500 C 701.053 477.600, 701.114 477.592, 702.126 479.332 C 702.711 480.339, 702.953 482.071, 702.663 483.180 C 702.373 484.290, 702.426 484.907, 702.782 484.552 C 703.633 483.700, 709.134 504.116, 708.507 505.802 C 708.241 506.518, 708.362 506.894, 708.777 506.638 C 709.191 506.382, 713.560 520.308, 718.485 537.586 L 727.439 569 743.720 569 C 757.433 569, 760 568.766, 760 567.519 C 760 566.704, 762.448 556.917, 765.439 545.769 C 771.736 522.307, 775.307 508.976, 781.449 486 C 783.876 476.925, 787.692 462.881, 789.930 454.790 C 792.169 446.700, 794 439.838, 794 439.540 C 794 439.243, 787.743 439, 780.096 439 L 766.192 439 760.368 462.750 C 757.164 475.813, 754.193 486.651, 753.765 486.835 C 753.338 487.020, 753.217 487.543, 753.498 487.997 C 754.138 489.032, 747.911 515.392, 746.931 515.798 C 746.536 515.962, 746.442 516.974, 746.723 518.048 C 747.004 519.122, 746.808 520, 746.287 520 C 745.767 520, 745.345 520.788, 745.349 521.750 C 745.371 526.866, 744.913 529.064, 743.948 528.468 C 743.309 528.073, 742.977 528.737, 743.103 530.159 C 743.218 531.446, 743.211 533.400, 743.088 534.500 C 742.835 536.769, 742.722 536.392, 734.088 504.500 C 730.663 491.850, 726.333 475.875, 724.466 469 C 722.599 462.125, 720.097 452.551, 718.907 447.725 L 716.742 438.949 701.759 439.225 L 686.776 439.500 683.065 452.500 C 681.024 459.650, 677.137 473.669, 674.427 483.653 C 671.717 493.638, 669.275 501.671, 669 501.504 C 668.725 501.338, 668.412 502.836, 668.305 504.833 C 668.198 506.830, 667.660 508.613, 667.111 508.796 C 666.562 508.979, 666.360 509.775, 666.663 510.565 C 666.966 511.354, 666.730 512, 666.138 512 C 665.547 512, 665.292 512.597, 665.572 513.328 C 665.852 514.058, 665.547 515.970, 664.895 517.578 C 663.703 520.512, 663.487 521.540, 663.171 525.809 C 663.077 527.079, 662.550 527.840, 662 527.500 C 661.395 527.126, 661 528.509, 661 531 C 661 533.711, 660.628 534.888, 659.913 534.446 C 659.315 534.077, 659.048 532.925, 659.319 531.887 C 659.591 530.849, 659.352 530, 658.790 530 C 658.227 530, 658.002 529.099, 658.290 527.999 C 658.578 526.898, 658.455 526.219, 658.016 526.490 C 657.067 527.076, 655.658 520.363, 656.458 519.068 C 656.763 518.575, 656.632 518.020, 656.168 517.835 C 655.465 517.556, 645.489 478.407, 638.245 447.500 L 636.370 439.500 622.185 439.223 C 612.209 439.027, 608 439.278, 608 440.066 M 808.939 444.880 C 810.572 448.113, 811.591 451.111, 811.204 451.540 C 810.817 451.969, 810.950 452.072, 811.500 451.769 C 812.050 451.466, 817.675 460.449, 824 471.732 C 830.325 483.014, 838.971 498.378, 843.214 505.873 L 850.927 519.500 850.964 544.250 L 851 569 864 569 L 877 569 877 544.293 L 877 519.586 893.728 489.543 C 920.265 441.882, 921 440.540, 921 439.750 C 921 439.338, 914.522 439, 906.604 439 L 892.207 439 880.860 459.908 C 874.619 471.408, 869.103 480.563, 868.602 480.254 C 868.101 479.944, 868.008 480.204, 868.396 480.831 C 868.784 481.459, 867.898 484.025, 866.428 486.533 C 863.845 490.941, 863.706 491.025, 862.319 489.046 C 861.530 487.919, 861.205 486.478, 861.597 485.844 C 861.988 485.210, 861.885 484.953, 861.367 485.273 C 860.849 485.594, 858.642 482.398, 856.462 478.173 C 854.283 473.947, 848.726 463.404, 844.113 454.745 L 835.726 439 820.849 439 L 805.971 439 808.939 444.880 M 133.250 462.728 C 135.313 462.944, 138.688 462.944, 140.750 462.728 C 142.813 462.513, 141.125 462.336, 137 462.336 C 132.875 462.336, 131.188 462.513, 133.250 462.728 M 269.850 469.500 C 269.577 474.052, 269.504 474.496, 268.951 475 C 267.696 476.144, 259.076 503.314, 259.666 504.269 C 260.020 504.841, 259.902 505.068, 259.405 504.773 C 258.907 504.479, 257.299 507.784, 255.832 512.119 L 253.164 520 271.082 520 C 288.333 520, 289 519.926, 289 518 C 289 516.900, 288.523 516, 287.941 516 C 287.359 516, 287.124 515.609, 287.419 515.131 C 288.207 513.856, 283.584 500.749, 282.670 501.663 C 282.243 502.090, 282.145 501.778, 282.452 500.970 C 283.193 499.016, 276.616 480.739, 275.528 481.729 C 275.061 482.153, 274.953 482.019, 275.287 481.430 C 276.151 479.911, 273.585 471.764, 272.542 472.714 C 272.068 473.146, 272.006 472.933, 272.404 472.241 C 273.280 470.720, 272.236 467, 270.933 467 C 270.420 467, 269.933 468.125, 269.850 469.500 M 545 469.441 C 545 470.298, 545.038 471.287, 545.085 471.638 C 545.132 471.989, 544.770 472.552, 544.281 472.888 C 543.223 473.615, 530.651 510.718, 530.604 513.250 C 530.586 514.212, 530.170 515, 529.679 515 C 529.188 515, 529.054 515.698, 529.382 516.552 C 529.723 517.442, 529.555 517.843, 528.989 517.493 C 528.445 517.157, 528 517.605, 528 518.489 C 528 519.911, 530.060 520.077, 545.917 519.931 L 563.834 519.766 562.428 515.133 C 561.654 512.585, 561.017 510.136, 561.011 509.691 C 561.005 509.246, 560.480 509.203, 559.845 509.595 C 559.168 510.014, 558.961 509.872, 559.344 509.252 C 560.113 508.009, 548.270 472.797, 546.768 471.862 C 546.205 471.511, 546.034 470.754, 546.388 470.181 C 546.743 469.607, 546.575 468.856, 546.016 468.510 C 545.457 468.165, 545 468.584, 545 469.441" stroke="none" fill="#fbfafb" fill-rule="evenodd"/></svg>